<svg xmlns="http://www.w3.org/2000/svg" viewBox="0 0 511.96 511.96"><path d="M507.4 370.47c-1.38-2.3-9.89-20.8-50.85-58.82-42.88-39.8-37.12-33.34 14.53-102.17 31.46-41.92 44.03-67.52 40.1-78.47-3.75-10.43-26.88-7.68-26.88-7.68l-76.93.45s-5.7-.77-9.95 1.76c-4.13 2.5-6.79 8.26-6.79 8.26s-12.2 32.45-28.45 60.03c-34.27 58.2-48 61.28-53.6 57.66-13.02-8.41-9.76-33.85-9.76-51.9 0-56.42 8.55-79.94-16.67-86.02-8.38-2.01-14.53-3.36-35.93-3.58-27.46-.29-50.72.1-63.88 6.53-8.76 4.29-15.52 13.85-11.39 14.4 5.09.67 16.6 3.1 22.72 11.42 7.9 10.72 7.62 34.85 7.62 34.85s4.54 66.4-10.6 74.66c-10.4 5.66-24.63-5.9-55.2-58.72-15.64-27.04-27.48-56.96-27.48-56.96s-2.27-5.57-6.34-8.55c-4.93-3.61-11.84-4.77-11.84-4.77l-73.15.45s-10.98.32-15 5.1c-3.6 4.25-.3 13.01-.3 13.01S58.66 275.4 123.5 342.95c59.5 61.92 127.01 57.86 127.01 57.86h30.6s9.24-1.03 13.95-6.12c4.35-4.67 4.19-13.44 4.19-13.44s-.6-41.05 18.46-47.1c18.79-5.95 42.91 39.68 68.48 57.25 19.33 13.28 34.02 10.37 34.02 10.37l68.38-.96s35.78-2.21 18.82-30.34z"/></svg>
