<svg xmlns="http://www.w3.org/2000/svg" width="94" height="94" fill="none" viewBox="0 0 94 94"><path fill="#fff" d="M47 31.27a9.2 9.2 0 0 0 0 18.4 9.2 9.2 0 0 0 0-18.4zM47 46a5.52 5.52 0 1 1 .02-11.04A5.52 5.52 0 0 1 47 45.99z"/><path fill="#fff" d="M75.56 11.85A40.09 40.09 0 0 0 47 0a40.09 40.09 0 0 0-28.56 11.85A40.24 40.24 0 0 0 6.61 40.47v51.69c0 1.02.82 1.84 1.84 1.84h77.1c1.02 0 1.84-.82 1.84-1.84V40.47c0-10.81-4.2-20.97-11.83-28.62zM30.48 90.32h-20.2v-3.68h20.2v3.68zm29.37-7.36h-5.5a1.84 1.84 0 0 0 0 3.68h5.5v3.68h-25.7v-3.68h5.5a1.84 1.84 0 0 0 0-3.68h-5.5v-3.68h25.7v3.68zm0-7.36h-25.7v-3.67h25.7v3.67zm1.84-7.35H32.3a1.84 1.84 0 0 1 0-3.68H61.7a1.84 1.84 0 0 1 0 3.68zm-33.15-5.86A28.7 28.7 0 0 1 47 11.77 28.7 28.7 0 0 1 65.46 62.4a5.48 5.48 0 0 0-3.77-1.5H32.3c-1.46 0-2.78.57-3.77 1.5zm55.18 27.93h-20.2v-3.68h20.2v3.68zm0-7.36h-20.2V71.61a5.53 5.53 0 0 0 3.64-5.86A32.38 32.38 0 0 0 47 8.1a32.38 32.38 0 0 0-20.16 57.66 5.53 5.53 0 0 0 3.63 5.86v11.35H10.29V40.47A36.8 36.8 0 0 1 47 3.67a36.8 36.8 0 0 1 36.72 36.8v42.5z"/><path fill="#fff" d="M47 82.96a1.84 1.84 0 0 0 0 3.68 1.84 1.84 0 0 0 0-3.68zM35.87 34.03a1.84 1.84 0 0 0-3.18-1.84 16.62 16.62 0 0 0 0 16.56 1.83 1.83 0 1 0 3.18-1.84 12.92 12.92 0 0 1 0-12.88zM29.18 50a20.24 20.24 0 0 1-.07-18.94 1.84 1.84 0 0 0-3.25-1.71 23.92 23.92 0 0 0 .09 22.4A1.84 1.84 0 1 0 29.18 50z"/></svg>
