<svg xmlns="http://www.w3.org/2000/svg" width="94" height="94" fill="none" viewBox="0 0 94 94"><g fill="#fff" clip-path="url(#clip0)"><path d="M23.6 58.5c-.8-.7-2-.7-2.6 0a1.8 1.8 0 0 0 2.6 2.6c.7-.8.7-2 0-2.6zM38.9 43.3c-.8-.7-2-.7-2.6 0l-11 11a1.8 1.8 0 0 0 2.6 2.5l11-11c.7-.6.7-1.8 0-2.5z"/><path d="M93.5 15.7L78.3.5c-.7-.7-1.9-.7-2.6 0l-5 5c-.7.8-.7 2 0 2.6l2.5 2.6-12 12-8.4-8.3a1.8 1.8 0 0 0-2.6 0L46 18.5c-.7.7-.7 1.9 0 2.6l1.8 1.8-36 36c-.7.7-.7 1.9 0 2.6l5.4 5.3-1.5 9-15.2 15a1.8 1.8 0 0 0 2.6 2.7l15.2-15.2 8.7-1.6 5.5 5.5a1.8 1.8 0 0 0 2.6 0l36-36L73 48a1.8 1.8 0 0 0 2.6 0l4.1-4.2a1.8 1.8 0 0 0 0-2.6L71.3 33l12-12.1 2.6 2.5a1.8 1.8 0 0 0 2.6 0l5-5a1.8 1.8 0 0 0 0-2.6zM19.6 74.3l.8-4.3 3.5 3.5-4.3.8zM52.2 60l-3.9-4a1.8 1.8 0 0 0-2.6 2.6l4 4-3.8 3.7-9-9.1a1.8 1.8 0 1 0-2.6 2.6l9 9-3.6 3.7-4-3.9a1.8 1.8 0 0 0-2.6 2.6l4 4-3.3 3.2-4.8-4.9-8.6-8.5-4.7-4.7L38 38l18 18.1-3.7 3.8zM65 47.2l-4-4a1.8 1.8 0 0 0-2.6 2.7l4 4-3.7 3.6-18.1-18 10-10 18 18-3.6 3.7zm10.9-4.7l-1.6 1.6-24.3-24.3 1.6-1.6 13.4 13.4 2.5 2.6 8.4 8.3zm-7.1-12.2l-.3-.4-4.7-4.6 12.1-12 4.8 4.7.1.2-12 12zm18.5-10.9L84.6 17 83 15.3l-8.4-8.5L77 4.4 89.6 17l-2.4 2.4z"/></g><defs><clipPath id="clip0"><path fill="#fff" d="M0 0h94v94H0z"/></clipPath></defs></svg>
