<svg xmlns="http://www.w3.org/2000/svg" width="94" height="94" fill="none" viewBox="0 0 94 94"><g fill="#fff" clip-path="url(#clip0)"><path d="M7.9 15a1.4 1.4 0 1 0 0-2.7 1.4 1.4 0 0 0 0 2.8zM39.5 68.2v-3.8a1.4 1.4 0 1 0-2.8 0v3.8a1.4 1.4 0 1 0 2.8 0zM86.1 15a1.4 1.4 0 1 0 0-2.7 1.4 1.4 0 0 0 0 2.8z"/><path d="M86.8 7.6L83 1.8A3.7 3.7 0 0 0 78 .6a3.7 3.7 0 0 0-1.2 5.1l3.6 5.8A6.2 6.2 0 0 0 80 14l-10.2 8.7A15.9 15.9 0 0 0 55 25.5a3.4 3.4 0 0 0-2.2 6.5l25.4 9.2a3.4 3.4 0 0 0 2.5-6.3c-.6-3.1-2-5.9-4.2-8l8.4-7.2 1.2.2a6.2 6.2 0 0 0 .7-12.3zM79 4.3a1 1 0 0 1 .3-1.4 1 1 0 0 1 1.4.3l3 4.8L82 9l-3-4.7zm-1.6 29.4l-.5-.2a1.4 1.4 0 0 0-1 2.6l3 1 .6.3a.7.7 0 0 1 0 1.2h-.5l-25.3-9.2a.7.7 0 0 1-.4-.9.7.7 0 0 1 .8-.3l.6.2 23.4 8.5a1.4 1.4 0 0 0 1-2.6l-21-7.6a13.1 13.1 0 0 1 19.3 7zm-3-8.7L72.6 24l8.2-7c.3.6.8 1 1.3 1.5L74.4 25zM86 17.1a3.4 3.4 0 0 1 0-6.8 3.4 3.4 0 0 1 0 6.8zM18 20.5a16 16 0 0 0-2.7 6.4 3.4 3.4 0 0 0 2.5 6.4L43 24a3.4 3.4 0 0 0 2-4.3 3.4 3.4 0 0 0-4.2-2.1C36.6 14 31 13 25.6 14.9l-12-3.4 3.6-5.8a3.8 3.8 0 0 0-6.3-4L7.2 7.7A6.2 6.2 0 0 0 8 19.9c1.3 0 2.6-.5 3.6-1.2l6.5 1.8zm23.1 0l.6-.3a.7.7 0 0 1 .9.4.7.7 0 0 1-.4.8l-25.4 9.3a.7.7 0 0 1-.8-.4c-.1-.4 0-.7.4-.9l.6-.2 24.1-8.8zm-14.7-3c3.8-1.3 8-.9 11.4 1.2l-19.4 7a13.1 13.1 0 0 1 8-8.2zm-12.4-3l8 2.2-2 1.6-6.6-2c.3-.5.5-1.2.6-1.9zm-.8-11.3a1 1 0 0 1 1.7 1l-3 4.9c-.5-.5-1-.8-1.7-1l3-4.9zM7.9 17.1a3.4 3.4 0 0 1 0-6.8 3.4 3.4 0 0 1 0 6.8zM75.7 65.2v-3.6a1.4 1.4 0 1 0-2.7 0v3.6a1.4 1.4 0 1 0 2.7 0zM23.1 55c-.8 0-1.4.6-1.4 1.4v3.5a1.4 1.4 0 1 0 2.8 0v-3.5c0-.8-.6-1.4-1.4-1.4z"/><path d="M79.3 54.5H36.6a4 4 0 0 1-3-1.2L20 39.6a5.4 5.4 0 0 0-7.6 0c-1 1-1.6 2.3-1.6 3.7v18.3c0 1.8.9 3.4 2.4 4.3l12.5 8a1.4 1.4 0 0 0 1.5-2.4l-12.5-7.9a2.4 2.4 0 0 1-1.2-2V43.3c0-.7.3-1.3.8-1.8 1-1 2.7-1 3.7 0l13.7 13.8c1.3 1.3 3 2 4.9 2h42.7c1.4 0 2.5 1.1 2.5 2.6v8c0 2.6-2.1 4.8-4.8 4.8H62.9v-8.3a1.4 1.4 0 1 0-2.8 0v8.3H31.8c-1.8 0-3.5-.5-5-1.4a1.4 1.4 0 1 0-1.5 2.3c2 1.2 4.2 1.9 6.5 1.9h6v2c0 1.8 1.5 3.4 3.4 3.4h1.2v5h-5.2c-2 0-3.7 1.7-3.7 3.7v1.8c0 1.4 1.2 2.6 2.6 2.6h25.7c1.5 0 2.6-1.2 2.6-2.6v-1.8c0-2-1.6-3.6-3.6-3.6h-5.3v-5h1.2c2 0 3.5-1.7 3.5-3.6v-2H77c4.2 0 7.6-3.3 7.6-7.6v-8c0-2.9-2.4-5.3-5.3-5.3zM60.8 88.7c.5 0 .9.4.9.9v1.6H36.3v-1.6c0-.5.4-.9.9-.9h23.6zM45.2 86v-5h7.6v5h-7.6zm11.5-7.8H41.2a.7.7 0 0 1-.7-.8v-2h17v2c0 .4-.4.8-.8.8z"/></g><defs><clipPath id="clip0"><path fill="#fff" d="M0 0h94v94H0z"/></clipPath></defs></svg>
