<svg xmlns="http://www.w3.org/2000/svg" width="94" height="94" fill="none" viewBox="0 0 94 94"><path fill="#fff" d="M87.7 0H6.3A6.3 6.3 0 0 0 0 6.3v81.4C0 91.2 2.8 94 6.3 94h81.4c3.5 0 6.3-2.8 6.3-6.3V6.3C94 2.8 91.2 0 87.7 0zM6.3 3.1h81.4c1.8 0 3.2 1.4 3.2 3.2v53.2h-9.4V17.2c0-2.6-2.1-4.7-4.7-4.7H17.2a4.7 4.7 0 0 0-4.7 4.7v42.3H3.1V6.3C3.1 4.5 4.5 3 6.3 3zm9.4 56.4V17.2c0-.8.7-1.5 1.5-1.5h59.6c.8 0 1.5.7 1.5 1.5v42.3H15.7zm61 3.2H83v12.5a3.1 3.1 0 1 1-6.2 0V62.7zM3.2 68.9h25.1v15.7h-25V68.9zm0 18.8h25.1c1.7 0 3.1-1.4 3.1-3.1V68.9c0-1.7-1.4-3.1-3.1-3.1h-25v-3.1h56.3v28.2H6.3A3.1 3.1 0 0 1 3 87.7zM87.7 91h-25V62.7h11v12.5a6.3 6.3 0 1 0 12.5 0V62.7h4.7v25c0 1.8-1.4 3.2-3.2 3.2z"/><path fill="#fff" d="M75.2 22c0-1.8-1.4-3.2-3.1-3.2H21.9a3.1 3.1 0 0 0-3.1 3.1V47c0 .3 0 .6.2 1a1.6 1.6 0 0 0 1.4 2.1l.6-.1 1 .1h50c1.8 0 3.2-1.4 3.2-3.1V22zm-3.1 25H24l8.3-8.3a1.6 1.6 0 0 0-2.2-2.2L22 44.8V21.9h50.2V47zM32.9 53.3h-4.7a1.6 1.6 0 1 0 0 3.1h4.7a1.6 1.6 0 1 0 0-3.1zM43.9 53.3h-4.7a1.6 1.6 0 0 0 0 3.1h4.7a1.6 1.6 0 0 0 0-3.1zM54.8 53.3h-4.7a1.6 1.6 0 0 0 0 3.1h4.7a1.6 1.6 0 0 0 0-3.1zM65.8 53.3h-4.7a1.6 1.6 0 1 0 0 3.1h4.7a1.6 1.6 0 1 0 0-3.1zM23.5 72c-.9 0-1.6.8-1.6 1.6V80a1.6 1.6 0 0 0 3.2 0v-6.3c0-.8-.7-1.5-1.6-1.5z"/><path fill="#fff" d="M35 34c.2.3.6.5 1 .5.2 0 .4 0 .6-.2.4-.1.7-.4.9-.8l.1-.6c0-.4-.2-.8-.5-1.1-.1-.2-.3-.3-.5-.3a1.5 1.5 0 0 0-1.2 0l-.2.1-.3.2c-.3.3-.4.7-.4 1.1v.6l.4.5zM49 43.4c.3.3.7.5 1.1.5.2 0 .4 0 .6-.2.4-.1.7-.4.9-.8l.1-.6c0-.4-.2-.8-.5-1.1-.1-.2-.3-.3-.5-.3a1.5 1.5 0 0 0-1.2 0l-.2.1-.3.2c-.3.3-.4.7-.4 1.1v.6l.4.5zM44.6 40.5a1.6 1.6 0 1 0 1.7-2.6l-4.7-3.2a1.6 1.6 0 0 0-1.7 2.6l4.7 3.2zM66.3 30.9l.5.3.6.1c.4 0 .8-.1 1-.4l.4-.5.1-.6c0-.4-.1-.8-.4-1.1l-.3-.2-.2-.2h-1.3l-.4.4c-.3.3-.5.7-.5 1l.1.7.4.5zM54.8 40.7c.4 0 .7 0 1-.3l7.8-6.3a1.6 1.6 0 0 0-2-2.4L54 37.9a1.6 1.6 0 0 0 1 2.8z"/></svg>
