<svg xmlns="http://www.w3.org/2000/svg" width="1792.9" height="560.2"><path d="M1792.1,560.1H4.9c-4,0-4.9-.7-4.9-4.8Q.2,280.2,0,5C0,1.2.5,0,4.8,0H920.1a3,3,0,0,0,1.7,1.1c23.7,3.3,44.8,14.2,66.7,22.8,20.3,7.9,39.4,18.6,59.2,27.8,15.3,7.2,29.3,16.4,44,24.6s28,18.4,42.1,27.6c10.9,7.2,21,15.8,31.4,23.8,18.1,14.2,34.6,30.2,51.1,46.1,8.6,8.4,16.8,17.2,24.7,26.2a533.1,533.1,0,0,1,41.7,54.1c10.7,15.6,20.4,31.9,32.5,46.7,8.1,9.9,15.9,19.9,25.1,29,7.2,7.1,13.6,15.1,20.9,22.1,23.1,22.6,47.5,43.8,74.2,62,15.4,10.5,30.2,22.1,46.9,30.4,11.5,5.6,22,12.8,33.7,18.1,7.3,3.2,14.8,6.6,21.5,11.3s13.8,7.6,21.1,10.3c14.5,5.5,28.2,12.7,42.6,18.2,60.2,23.1,121.6,41.8,185.1,53.4a45.6,45.6,0,0,1,5.3,1.3C1793.6,557.7,1793,558.9,1792.1,560.1Z" fill="#49b7a8"/></svg>
