<svg xmlns="http://www.w3.org/2000/svg" viewBox="0 0 480 480"><path d="M344 32H223.2a40 40 0 0 0-78.4 0H24a8 8 0 0 0-8 8v432a8 8 0 0 0 8 8h320a8 8 0 0 0 8-8V40a8 8 0 0 0-8-8zM104 48h48a8 8 0 0 0 8-8 24 24 0 1 1 48 0 8 8 0 0 0 8 8h48v24H104V48zm-8 40h176a8 8 0 0 0 8-8h24v352H64V80h24a8 8 0 0 0 8 8zm240 376H32V48h56v16H56a8 8 0 0 0-8 8v368a8 8 0 0 0 8 8h256a8 8 0 0 0 8-8V72a8 8 0 0 0-8-8h-32V48h56v416zM456 72h-16v-8h-16v8h-16a8 8 0 0 0-8 8v8h-16a8 8 0 0 0-8 8v168h16V104h8v304c0 1.1.2 2.2.7 3.2l23.3 54.4V480h16v-14.4l23.4-54.4c.4-1 .6-2 .6-3.2V80a8 8 0 0 0-8-8zm-8 334.4l-16 37.3-16-37.3V296h32v110.4zm0-126.4h-32v-16h32v16zm0-32h-32V88h32v160z"/><path d="M138.4 130.4L104 164.7l-10.3-10.3-11.3 11.3 16 16a8 8 0 0 0 11.3 0l40-40-11.3-11.3zM176 128h112v16H176zM176 152h104v16H176zM176 232h112v16H176zM176 256h104v16H176zM176 336h112v16H176zM176 360h104v16H176z"/></svg>
