<svg xmlns="http://www.w3.org/2000/svg" viewBox="0 0 1260 1446"><path fill="#49b7a8" fill-rule="evenodd" d="M630 0c348 0 630 282 630 630 0 301-216 534-494 615-60 18-88 90-136 201-48-111-76-183-136-201C216 1164 0 931 0 630 0 282 282 0 630 0z" clip-rule="evenodd"/><path fill="#fff" fill-rule="evenodd" d="M960 392.3c-35.2 71.5-72.3 100.6-126.4 107.1a251.5 251.5 0 0 1 28.4 84.5c-7.5 8.9-12.8 27.3-12.8 51.5s5.6 48.4 14.5 55.6a490.2 490.2 0 0 1-27.3 109.8 225.8 225.8 0 0 1 31.5 20.4c38.3 31.4 33.9 41.3 39.3 81.8-74.5-117.6-171.7-32.5-225.5-32.5-79.3 0-173.7-88.3-242.2-144.9-1.2-1-3.4-.7-4.7.3-21.8 18.9-24.1 23.4-38.2 37a6 6 0 0 1-1.7 1.5c-.7.4-1.4.6-2.3.6a5.2 5.2 0 0 1-5.1-5.3c0-1.3.4-2.4 1.1-3.4C467.3 650 641.5 471.4 759.1 395.7a9 9 0 0 0 4.7-8c0-4.9-3.8-8.9-8.5-8.9-1.1 0-2.1.2-3 .6l-1.2.6c-170.9 83.9-313.7 233.9-442.5 381.4-.9 1-2.2 1.6-3.6 1.6a5.2 5.2 0 0 1-5.1-5.3c0-.7.1-1.4.4-2 7.5-32.2 361.1-424.5 464.2-412.3 13.9 1.7 54.1 21.3 50.5 58.8 61.6 24.8 88.9 23.9 145-9.9zM810.9 501.6c-29.7 1.9-57.5-3-92.4-11.4-18.8-4.5-13.7-6.2-29.5 5.7-88.4 66.7-144.7 111.7-223.9 197.6-2.8 3-1.2 3.3.5 4.4 262.6 168.1 247.2 44.4 349.9 92.4 7.3-19.5 15.5-36.8 20-56.7a227.5 227.5 0 0 1-24.4-97.9c0-39.3 14.3-67.5 22.7-86.9-5.4-17.2-14.2-33-22.9-47.2z" clip-rule="evenodd"/></svg>
