<svg xmlns="http://www.w3.org/2000/svg" viewBox="0 0 480 480"><path d="M392 471.2l-15-141.4a24 24 0 0 0-16.9-20.5L296 290v-45.4l2.1-1.6c29.3-24.4 43.9-80.2 45.7-115h.2a8 8 0 0 0 8-8v-8a112 112 0 1 0-224 0v16a8 8 0 0 0 8 8l.9-.1c3.5 34.5 18.2 84.7 45 107l2.1 1.7V290l-64.1 19.2a24 24 0 0 0-17 20.5L88 471.2a8 8 0 0 0 8 8.8h288a8 8 0 0 0 8-8.8zM118.8 331.4a8 8 0 0 1 5.7-6.8l11.5-3.4v24a32 32 0 0 0-20.3 16.2l3.1-30zM144 360a16 16 0 1 1 0 32 16 16 0 0 1 0-32zm40 104h-79.1l8.4-79.6a32 32 0 1 0 38.7-39.3v-28.8l32-9.6V464zm160-142.8l11.5 3.4a8 8 0 0 1 5.7 6.8l1.3 13.1c-.8-.3-1.6-.5-2.5-.5h-16v-22.8zM144 112a96 96 0 0 1 192 0h-24c-22 0-40-18-40-40a8 8 0 0 0-9.7-7.8l-4.8 1C217 74.3 178.7 90.4 144 113v-.9zm56 352V357.8l28.3-9.5-20 73.6a8 8 0 0 0 .5 5.7l18.3 36.4H200zm0-123.1v-16l19.1 9.6L200 341zm24.5 82.3l15.5-56.8 15.5 56.8-15.5 31-15.5-31zM280 464h-27l18.2-36.4a8 8 0 0 0 .6-5.7l-20.1-73.6 28.3 9.5V464zm0-123.1l-19.1-6.4 19.1-9.6v16zm0-33.9l-40 20-40-20v-52.4a90.6 90.6 0 0 0 80 0V307zm7.8-76.3a74.7 74.7 0 0 1-95.6 0c-24.5-20.4-38.4-71.9-40-104 32-21 67.4-36.1 104.7-44.9A56.1 56.1 0 0 0 312 128h15.8c-2 35.7-17.8 84.2-40 102.7zM296 464V306.8l32 9.6V344h-16a8 8 0 0 0-8 8v48a8 8 0 0 0 8 8h16v-16h-8v-32h32v32h-8v16h16a8 8 0 0 0 8-8v-3.6l7.1 67.6H296z"/></svg>
