<svg xmlns="http://www.w3.org/2000/svg" width="239" height="82" fill="none" viewBox="0 0 239 82"><g fill="#fff" clip-path="url(#clip0)"><path fill-rule="evenodd" d="M100.84 7.22c-5.38 10.47-11.05 14.73-19.3 15.68 2.11 3.48 3.53 7.8 4.33 12.38-1.15 1.3-1.96 4-1.96 7.53 0 3.54.86 7.09 2.22 8.15a68.78 68.78 0 0 1-4.17 16.09c1.7.85 2.66 1.5 4.81 2.98 5.86 4.6 5.17 6.04 6.01 11.97-11.37-17.22-26.22-4.76-34.45-4.75-12.11 0-26.53-12.93-37-21.22-.18-.15-.52-.1-.71.05-3.33 2.76-3.69 3.43-5.83 5.42a.82.82 0 0 1-.27.22.74.74 0 0 1-.34.08.78.78 0 0 1-.78-.78.8.8 0 0 1 .17-.5c11.99-15.56 38.61-41.71 56.58-52.8a1.3 1.3 0 0 0-1.03-2.4l-.18.1C42.83 17.7 21.02 39.65 1.34 61.25h-.01a.77.77 0 0 1-.55.23.78.78 0 0 1-.72-1.07C1.2 55.7 55.22-1.74 70.98.04c2.13.24 8.26 3.12 7.72 8.61 9.4 3.65 13.57 3.51 22.14-1.43zM78.06 23.23c-4.53.28-8.78-.43-14.13-1.67-2.87-.66-2.09-.9-4.5.84-13.5 9.76-22.1 16.36-34.2 28.94-.43.44-.19.49.07.65 40.12 24.62 37.78 6.5 53.46 13.53 1.11-2.85 2.37-5.38 3.05-8.3a32.38 32.38 0 0 1-3.72-14.33c0-5.75 2.18-9.89 3.47-12.73a30.03 30.03 0 0 0-3.5-6.93z" clip-rule="evenodd"/><path d="M108.42 46.32c-.3 0-.6-.04-.89-.11-.28-.07-.53-.2-.74-.38a1.83 1.83 0 0 1-.5-.72c-.13-.3-.19-.68-.19-1.14 0-.45.06-.82.18-1.12a1.77 1.77 0 0 1 1.22-1.1 3.55 3.55 0 0 1 1.8 0 1.79 1.79 0 0 1 1.25 1.1c.12.3.19.68.19 1.14 0 .44-.06.82-.18 1.12a1.77 1.77 0 0 1-1.22 1.1c-.28.07-.6.1-.92.1zm1.87-2.33c0-.38-.05-.7-.15-.94a1.5 1.5 0 0 0-.41-.59 1.44 1.44 0 0 0-.6-.3 2.87 2.87 0 0 0-1.44 0c-.23.06-.42.15-.6.3-.16.14-.3.33-.4.58-.1.25-.15.56-.15.93 0 .38.05.7.15.95a1.43 1.43 0 0 0 1.02.88 3.1 3.1 0 0 0 1.43 0c.22-.05.42-.15.59-.29.17-.14.3-.33.41-.58.1-.25.15-.57.15-.94zM114.14 46.23v-.45c-.31 0-.61-.03-.9-.07-.3-.04-.56-.12-.79-.25a1.5 1.5 0 0 1-.56-.54 1.8 1.8 0 0 1-.2-.94c0-.4.06-.7.2-.94.14-.23.33-.41.56-.54.23-.12.5-.2.79-.25.29-.04.59-.06.9-.07v-.45h.43v.45c.3 0 .6.03.9.07.3.04.56.13.79.25.23.13.41.3.56.54.14.23.22.55.22.94 0 .39-.08.7-.22.94-.14.23-.33.41-.56.54-.23.12-.5.2-.8.25-.29.04-.59.06-.89.07v.45h-.43zm-2.01-2.25c0 .3.06.55.17.73.12.18.27.32.46.4.19.1.4.16.64.18.24.03.49.05.74.05v-2.72c-.25 0-.5.02-.74.05-.24.03-.45.08-.64.18-.19.1-.34.23-.46.41-.11.18-.17.42-.17.72zm4.45 0c0-.3-.05-.54-.17-.72a1.15 1.15 0 0 0-.46-.41c-.2-.1-.41-.15-.64-.18a8.8 8.8 0 0 0-.74-.05v2.72c.25 0 .5-.02.74-.05.23-.02.45-.08.64-.17.19-.1.34-.23.46-.41.12-.18.17-.42.17-.73zM119.55 46.23v-4.07h-1.92v-.43h4.23l-.04.43H120v4.07h-.45zM125.29 45.19h-2.9l-.52 1.04h-.5l2.29-4.5h.37l2.29 4.5h-.5l-.53-1.04zm-2.7-.4h2.5l-1.25-2.48-1.25 2.48zM130.49 46.23v-4.07h-2.6l-.14 3.04c0 .22-.03.4-.07.54a.77.77 0 0 1-.19.33.59.59 0 0 1-.27.15 1.28 1.28 0 0 1-.5.03l-.17-.02.04-.41h.19a.9.9 0 0 0 .2-.02.36.36 0 0 0 .17-.08c.05-.05.08-.11.11-.2.03-.08.04-.2.04-.32l.15-3.48h3.48v4.5h-.44v.01zM135.18 43.42c.18 0 .34.02.48.08.16.05.29.13.4.24.1.12.2.26.26.44.07.18.1.4.1.64 0 .25-.03.46-.1.64-.06.18-.15.32-.26.44a1 1 0 0 1-.4.25c-.15.05-.3.07-.48.07h-2.81v-4.5h.45v1.7h2.36zm0 2.37c.1 0 .21-.02.3-.05.1-.03.19-.1.26-.17a.78.78 0 0 0 .17-.3c.04-.12.07-.27.07-.44 0-.17-.02-.32-.06-.44a.89.89 0 0 0-.18-.3.63.63 0 0 0-.25-.18.9.9 0 0 0-.31-.05h-2.36v1.94h2.36zM142.05 46.23v-3.61l-1.81 2.7h-.38l-1.81-2.7v3.61h-.45v-4.5h.39l2.05 3.1 2.06-3.1h.39v4.5h-.44zM146.02 46.32c-.32 0-.61-.04-.9-.11-.28-.07-.53-.2-.74-.38a1.82 1.82 0 0 1-.5-.72c-.12-.3-.19-.68-.19-1.14 0-.45.06-.82.18-1.12a1.8 1.8 0 0 1 1.22-1.1 3.54 3.54 0 0 1 1.8 0c.29.07.53.2.75.37.2.18.38.42.5.72s.19.69.19 1.15c0 .44-.06.82-.18 1.12a1.78 1.78 0 0 1-1.22 1.1c-.28.07-.59.1-.91.1zm1.87-2.33c0-.38-.05-.7-.15-.94-.1-.25-.24-.44-.41-.59a1.45 1.45 0 0 0-.6-.3 2.88 2.88 0 0 0-1.44 0c-.23.06-.43.15-.6.3-.16.14-.3.33-.4.58-.1.25-.15.56-.15.93 0 .38.05.7.15.95a1.43 1.43 0 0 0 1.02.88 3.08 3.08 0 0 0 1.42 0c.23-.05.42-.15.6-.29.17-.14.3-.33.4-.58.1-.25.16-.57.16-.94zM152.87 46.23v-4.07h-2.6l-.14 3.04c0 .22-.02.4-.07.54a.77.77 0 0 1-.18.33.6.6 0 0 1-.28.15 1.28 1.28 0 0 1-.5.03l-.16-.02.04-.41h.18c.08 0 .15 0 .21-.02a.37.37 0 0 0 .17-.08c.05-.05.08-.11.11-.2a1 1 0 0 0 .04-.32l.14-3.48h3.49v4.5h-.45v.01zM156.84 46.32c-.31 0-.6-.04-.89-.11-.28-.07-.53-.2-.74-.38a1.82 1.82 0 0 1-.5-.72c-.13-.3-.19-.68-.19-1.14 0-.45.06-.82.18-1.12a1.77 1.77 0 0 1 1.22-1.1 3.55 3.55 0 0 1 1.8 0c.29.07.53.2.74.37.21.18.38.42.5.72.13.3.2.69.2 1.15 0 .44-.06.82-.18 1.12a1.82 1.82 0 0 1-1.22 1.1c-.28.07-.59.1-.92.1zm1.88-2.33c0-.38-.05-.7-.16-.94a1.5 1.5 0 0 0-.4-.59 1.45 1.45 0 0 0-.61-.3 2.88 2.88 0 0 0-1.44 0c-.22.06-.42.15-.59.3-.17.14-.3.33-.4.58-.1.25-.15.56-.15.93 0 .38.04.7.15.95a1.43 1.43 0 0 0 1.01.88 3.09 3.09 0 0 0 1.43 0c.22-.05.42-.15.6-.29.16-.14.3-.33.4-.58.1-.25.16-.57.16-.94zM160.34 46.23v-4.5h3.73l-.04.43h-3.24v4.07h-.45zM164.94 46.23v-4.5h.46v3.75l3.35-3.75h.36v4.5h-.45v-3.75l-3.35 3.75h-.37zM170.5 41.73h.44v1.6c0 .23.04.42.12.58.08.16.2.29.35.38.15.1.34.17.56.21a4.22 4.22 0 0 0 1.33.03l.44-.08v-2.72h.45v4.5h-.45V44.9a9.01 9.01 0 0 1-1.07.1c-.34 0-.64-.03-.91-.08-.27-.06-.5-.16-.7-.28-.18-.13-.32-.3-.42-.52-.1-.21-.15-.47-.15-.78v-1.61zM175.62 46.23v-4.5h3.74l-.04.43h-3.25v1.6h2.9l-.01.44h-2.89v1.6h3.29l-.04.43h-3.7zM180.19 43.9c0-.5.07-.9.21-1.2a1.68 1.68 0 0 1 1.32-.99 5.79 5.79 0 0 1 1.68-.03l.87.1-.04.44a10.9 10.9 0 0 0-1.57-.14c-.26 0-.51.01-.75.05-.24.03-.46.11-.65.23-.18.12-.33.3-.45.55a2.4 2.4 0 0 0-.16.99c0 .4.06.75.17 1 .11.27.27.47.46.62.2.14.42.24.68.29.25.05.52.07.8.07h.27l.37-.02a7.01 7.01 0 0 0 .84-.12l.03.44-.43.06-.43.04-.4.03-.34.01a4.4 4.4 0 0 1-.93-.1 1.78 1.78 0 0 1-1.34-1.1c-.14-.31-.21-.72-.21-1.22zM185.44 46.23v-4.5h.45v2.03h1.12l1.82-2.03h.58l-2 2.25 2 2.25h-.58l-1.81-2.03h-1.13v2.03h-.45zM193.56 45.19h-2.9l-.53 1.04h-.5l2.3-4.5h.37l2.29 4.5h-.5l-.53-1.04zm-2.7-.4h2.5l-1.25-2.48-1.25 2.48zM194.96 46.23l1.5-1.7h-.4a1.3 1.3 0 0 1-.45-.07 1 1 0 0 1-.63-.7c-.06-.17-.1-.38-.1-.63 0-.26.04-.46.1-.64.06-.18.14-.32.25-.44.1-.11.23-.2.38-.25.14-.05.3-.07.46-.07h2.86v4.5h-.45v-1.7h-1.45l-1.52 1.7h-.55zm.38-3.1c0 .17.02.32.06.44.04.13.1.22.16.3.06.08.14.14.23.18.09.03.19.05.28.05h2.4v-1.94h-2.4c-.1 0-.2.02-.28.06a.59.59 0 0 0-.23.16.95.95 0 0 0-.16.3c-.04.13-.06.27-.06.44zM202.84 46.23v-4.5h.46v2.03h1.11l1.82-2.03h.59l-2 2.25 2 2.25h-.59l-1.81-2.03h-1.13v2.03h-.44zM211.07 46.23v-4.07h-2.6l-.14 3.04c0 .22-.03.4-.07.54a.77.77 0 0 1-.19.33.6.6 0 0 1-.27.15 1.28 1.28 0 0 1-.5.03l-.16-.02.04-.41h.18c.07 0 .14 0 .2-.02a.37.37 0 0 0 .17-.08c.05-.05.09-.11.12-.2.03-.08.04-.2.04-.32l.14-3.48h3.48v4.5h-.44v.01zM212.95 46.23v-4.5h.45v3.75l3.36-3.75h.36v4.5h-.46v-3.75l-3.34 3.75h-.37zM218.54 46.23v-4.5h.45v2.03h3.4v-2.03h.45v4.5h-.45V44.2h-3.4v2.03h-.45zM224.27 46.23v-4.5h.45v3.75l3.35-3.75h.36v4.5h-.45v-3.75l-3.34 3.75h-.37zM229.85 46.23v-4.5h.46v2.03h1.11l1.82-2.03h.59l-2 2.25 2 2.25h-.59l-1.81-2.03h-1.13v2.03h-.45zM237.97 45.19h-2.9l-.52 1.04h-.5l2.3-4.5h.37l2.28 4.5h-.5l-.53-1.04zm-2.7-.4h2.5l-1.24-2.48-1.25 2.48zM126.98 24.93a8.66 8.66 0 0 0-2.61-.9c-.9-.16-1.8-.23-2.7-.23h-2.42l-4.44 7.08a12.22 12.22 0 0 1-1.91 2.47 7.74 7.74 0 0 1-1.85 1.34c-.61.3-1.22.49-1.83.55-.61.06-1.23.09-1.85.09h-1.23v-4.15h.93c.3 0 .62-.03.96-.1.34-.06.7-.2 1.07-.4.38-.22.78-.54 1.2-.95.44-.42.9-.99 1.4-1.72l2.95-4.41a9 9 0 0 1-2.86-.89 7.37 7.37 0 0 1-3.64-4.15c-.34-.94-.52-2-.52-3.18 0-1.24.22-2.36.65-3.38a7.23 7.23 0 0 1 1.83-2.58 8.39 8.39 0 0 1 2.78-1.64c1.07-.4 2.24-.59 3.51-.59h14.65v28.13h-4.07v-10.4zm0-13.57h-10.54c-.67 0-1.3.09-1.87.28-.57.19-1.06.45-1.49.78-.42.34-.75.76-1 1.24a3.53 3.53 0 0 0-.37 1.64c0 1.5.43 2.6 1.3 3.3.87.7 2.01 1.05 3.43 1.05h5.25c.92 0 1.82.06 2.7.19.88.12 1.75.44 2.6.94v-9.42zM163.13 13.92a11.58 11.58 0 0 0-3.65-2.49c-1.4-.6-2.9-.9-4.48-.9-1.55 0-3 .26-4.34.79a10.23 10.23 0 0 0-5.8 5.66 11.02 11.02 0 0 0 .05 8.54c.6 1.3 1.41 2.4 2.43 3.33a11.42 11.42 0 0 0 12.7 1.8 11.5 11.5 0 0 0 3.85-3.2l2.5 3.43a15.44 15.44 0 0 1-5.06 3.74c-1.96.9-4.06 1.35-6.33 1.35a14.87 14.87 0 0 1-10.65-4.37 15.19 15.19 0 0 1-4.34-10.75c0-2.05.42-3.97 1.22-5.75.81-1.77 1.91-3.3 3.3-4.6 1.37-1.3 2.97-2.3 4.8-3.03 1.81-.73 3.71-1.1 5.7-1.1 2.12 0 4.1.4 5.92 1.2 1.83.79 3.44 1.87 4.8 3.26l-2.62 3.09zM179.04 35.34h-4.07V7.21h4.07L179 18.75a7.05 7.05 0 0 1 1.76-.59c.6-.11 1.2-.17 1.8-.17.4 0 .97.05 1.73.14a445.94 445.94 0 0 0 5.1.56c.87.1 1.62.14 2.24.14.57 0 1.2-.05 1.87-.15.67-.1 1.3-.29 1.9-.57V7.21h4.07v28.13h-4.07V22.25c-.6.28-1.23.47-1.9.57-.67.1-1.3.14-1.87.14-.62 0-1.36-.04-2.23-.13a282.51 282.51 0 0 1-5.1-.56 16 16 0 0 0-1.72-.14c-.6 0-1.2.06-1.8.17-.59.11-1.17.3-1.74.58v12.46zM238.47 21.31c0 2.09-.41 4.03-1.22 5.8-.81 1.8-1.9 3.34-3.27 4.65a15.52 15.52 0 0 1-4.79 3.09 14.94 14.94 0 0 1-5.76 1.13 14.89 14.89 0 0 1-10.66-4.37 15.28 15.28 0 0 1-4.34-10.75c0-2.05.41-3.97 1.22-5.75.81-1.77 1.9-3.3 3.3-4.6a15.2 15.2 0 0 1 4.8-3.03c1.82-.73 3.72-1.1 5.72-1.1a14.95 14.95 0 0 1 13.82 9.05c.78 1.8 1.18 3.77 1.18 5.88zm-4.07-.25a10.17 10.17 0 0 0-3.28-7.58 10.88 10.88 0 0 0-3.49-2.18 11.5 11.5 0 0 0-4.22-.78c-1.54 0-2.98.27-4.33.8a10.23 10.23 0 0 0-5.81 5.66 11.02 11.02 0 0 0 .06 8.54c.6 1.3 1.4 2.4 2.43 3.33A11.42 11.42 0 0 0 227.69 31a10.8 10.8 0 0 0 6.7-9.94zM129.86 71.41c0 1.4-.28 2.6-.84 3.56a7.22 7.22 0 0 1-2.21 2.37 9.43 9.43 0 0 1-3.09 1.34c-1.14.28-2.29.41-3.44.41h-14.14V50.96h14.12c1.17 0 2.26.17 3.27.51a7.5 7.5 0 0 1 2.61 1.5c.74.65 1.31 1.45 1.72 2.4.41.96.62 2.06.62 3.3 0 1.2-.22 2.3-.64 3.28a4.93 4.93 0 0 1-1.87 2.27 6.36 6.36 0 0 1 2.68 2.48 9.14 9.14 0 0 1 1.2 4.71zm-19.65-7.68c.84-.5 1.7-.8 2.59-.93a19.4 19.4 0 0 1 2.7-.19h4.77c1.27 0 2.27-.32 3.02-.97.74-.64 1.12-1.62 1.12-2.93 0-1.34-.4-2.27-1.16-2.8a5.16 5.16 0 0 0-2.98-.8H110.2v8.62zm0 11.22h10.47c.54 0 1.12-.08 1.73-.25.6-.16 1.16-.4 1.66-.75.5-.34.9-.76 1.23-1.28.32-.51.48-1.11.48-1.82 0-.82-.16-1.5-.48-2.02a3.54 3.54 0 0 0-1.27-1.24 5.54 5.54 0 0 0-1.77-.64c-.65-.12-1.32-.19-1.99-.19h-4.77c-.9 0-1.79.08-2.68.23-.9.15-1.77.45-2.61.9v7.06zM156.98 50.96h4.07V79.1h-4.07V57.41L140.6 79.1h-4.07V50.96h4.07v21.68l16.37-21.68zM185.6 50.96h4.06v11.62c.77-.03 1.55-.12 2.32-.27a7.55 7.55 0 0 0 2.24-.83l7.06-10.52h4.9l-9.16 13.24 5.01 7.58c.45.7.88 1.26 1.31 1.68.42.41.82.73 1.2.96.37.22.73.37 1.08.43a5.56 5.56 0 0 0 1.46.08l.44-.02.04 4.18H206c-.62 0-1.22-.04-1.81-.11a5.07 5.07 0 0 1-1.74-.56 7.6 7.6 0 0 1-1.75-1.34c-.6-.59-1.2-1.4-1.83-2.43l-5.34-8.63c-.65.27-1.3.46-1.92.56-.64.1-1.28.15-1.93.15V79.1h-4.07V66.73c-.64 0-1.29-.05-1.92-.15a7.47 7.47 0 0 1-1.89-.56l-5.38 8.63a13.14 13.14 0 0 1-1.94 2.47 7.5 7.5 0 0 1-1.83 1.32c-.6.29-1.2.47-1.8.55-.62.07-1.23.1-1.85.1h-1.24l.04-4.18c.13 0 .26 0 .42.02a6.83 6.83 0 0 0 1.48-.05c.33-.05.68-.19 1.06-.4.37-.21.77-.53 1.2-.96.41-.43.87-1 1.34-1.73l5-7.58-9.15-13.24h4.9l7.02 10.52c.72.4 1.46.68 2.22.83.76.16 1.53.24 2.33.27V50.96h-.02zM217.3 57.58a36.73 36.73 0 0 0 5.27 9.5c1 1.3 2 2.56 3.03 3.8a44.4 44.4 0 0 0 2.26-4.43 82.73 82.73 0 0 0 2.07-5.11 103.52 103.52 0 0 0 3.22-10.37h4.67c-.55 2.11-1.15 4.22-1.81 6.33-.66 2.12-1.4 4.2-2.24 6.28a70.95 70.95 0 0 1-2.79 6.09 54.84 54.84 0 0 1-3.4 5.73c-.57.83-1.14 1.51-1.71 2.04a6.97 6.97 0 0 1-3.64 1.87 11.1 11.1 0 0 1-3.52.03c-.56-.1-1.1-.22-1.64-.38a9.27 9.27 0 0 1-1.47-.58 3.9 3.9 0 0 1-1.05-.72l1.57-3.59c.6.51 1.19.87 1.77 1.08.59.21 1.38.32 2.38.32.64 0 1.22-.12 1.73-.36.51-.23.92-.63 1.22-1.18a35.72 35.72 0 0 1-7.28-9.22c-1.05-1.87-2-3.95-2.84-6.22a55.38 55.38 0 0 1-2.17-7.53h4.45c.53 2.49 1.18 4.7 1.93 6.62z"/></g><defs><clipPath id="clip0"><path fill="#fff" d="M0 0h239v82H0z"/></clipPath></defs></svg>
