<svg xmlns="http://www.w3.org/2000/svg"><symbol id="angry" viewBox="0 0 30 31"><path d="M9.4 24.2a.4.4 0 0 0 .7.5c1.2-1.6 3-2.5 5-2.5 1.9 0 3.7 1 4.8 2.5a.4.4 0 1 0 .7-.6 7 7 0 0 0-5.6-2.7 7 7 0 0 0-5.6 2.8zm13.9-10.4c0-.3-.3-.4-.5-.3l-5.7 1.4a.4.4 0 0 0 .2.8h.2v.4c0 1.5 1 2.7 2.2 2.7 1.2 0 2.2-1.2 2.2-2.7 0-.5-.2-1-.4-1.4l1.5-.4c.3 0 .4-.3.3-.5zm-3.6 4.1c-.7 0-1.3-.8-1.3-1.8v-.7l2.2-.5c.3.3.4.8.4 1.2 0 1-.6 1.8-1.3 1.8zm-9.3.9c1.2 0 2.1-1.2 2.1-2.7v-.4h.2a.4.4 0 0 0 .2-.8l-5.7-1.4a.4.4 0 1 0-.2.8l1.5.4c-.2.4-.3.9-.3 1.4 0 1.5 1 2.7 2.2 2.7zm1.2-3.4v.7c0 1-.5 1.8-1.2 1.8-.8 0-1.3-.8-1.3-1.8 0-.4 0-.9.3-1.2l2.2.5z"/><path stroke="currentColor" fill="transparent" d="M29.5 15.8a14.5 14.5 0 1 1-29 0 14.5 14.5 0 0 1 29 0z"/></symbol><symbol id="attach-file" viewBox="-53 0 512 512"><path d="M345.9 31H192.5a60 60 0 0 0-105 0H60C27 31 0 58 0 91v361c0 33 27 60 60 60h285.9c33 0 60-27 60-60V91c0-33-27-60-60-60zm20 421c0 11-9 20-20 20H60c-11 0-20-9-20-20V91c0-11 9-20 20-20h100v143a20 20 0 0 1-40 0v-96H80v96a60 60 0 0 0 120 0V71h145.9c11 0 20 9 20 20v361zM80 392h165v40H80zm0-79h245v40H80zm159-78h86v40h-86zm0-79h86v40h-86zm0 0"/></symbol><symbol id="facebook" viewBox="0 0 512 512"><path d="M288 176v-64c0-17.66 14.34-32 32-32h32V0h-64a96 96 0 0 0-96 96v80h-64v80h64v256h96V256h64l32-80h-96z"/></symbol><symbol id="instagram" viewBox="0 0 512 512"><path d="M352 0H160C71.65 0 0 71.65 0 160v192c0 88.35 71.65 160 160 160h192c88.35 0 160-71.65 160-160V160C512 71.65 440.35 0 352 0zm112 352c0 61.76-50.24 112-112 112H160c-61.76 0-112-50.24-112-112V160C48 98.24 98.24 48 160 48h192c61.76 0 112 50.24 112 112v192z"/><path d="M256 128c-70.69 0-128 57.31-128 128s57.31 128 128 128 128-57.31 128-128-57.31-128-128-128zm0 208c-44.1 0-80-35.9-80-80 0-44.13 35.9-80 80-80s80 35.87 80 80c0 44.1-35.9 80-80 80z"/><circle cx="393.6" cy="118.4" r="17.06"/></symbol><symbol id="magnify" viewBox="0 0 30 30"><path d="M29.285 29.041l-8.416-8.753a11.857 11.857 0 0 0 3.477-8.394C24.346 5.335 19.01 0 12.45 0 5.892 0 .557 5.335.557 11.894c0 6.56 5.335 11.895 11.894 11.895a11.84 11.84 0 0 0 7.581-2.737l8.437 8.774a.562.562 0 0 0 .8.016.567.567 0 0 0 .016-.8zm-16.834-6.385c-5.934 0-10.761-4.827-10.761-10.762 0-5.934 4.827-10.761 10.76-10.761 5.934 0 10.762 4.827 10.762 10.761 0 5.935-4.828 10.762-10.762 10.762z"/></symbol><symbol id="news" viewBox="0 0 30 31"><path d="M29.5 7.8H22V1.3c0-.2-.2-.5-.5-.5H.5c-.3 0-.5.3-.5.5v25c0 2.5 2 4.5 4.5 4.5h21c2.5 0 4.5-2 4.5-4.5v-18c0-.2-.2-.5-.5-.5zm-6.8 22H4.5c-2 0-3.5-1.5-3.5-3.5V1.8h20V27l.1.3v.2a3.5 3.5 0 0 0 .4.9l.1.2.1.2.2.2.1.2.3.2v.1l.4.3zm6.3-3.5a3.5 3.5 0 0 1-7 0V8.8h7v17.5z"/><path d="M18.5 4.8h-15c-.3 0-.5.3-.5.5v5c0 .3.2.5.5.5h15c.3 0 .5-.2.5-.5v-5c0-.2-.2-.5-.5-.5zm-.5 5H4v-4h14v4zm.5 4h-15a.5.5 0 1 0 0 1h15a.5.5 0 0 0 0-1zm0 3h-15a.5.5 0 0 0 0 1h15a.5.5 0 0 0 0-1zm0 3h-15a.5.5 0 0 0 0 1h15a.5.5 0 0 0 0-1z"/></symbol><symbol id="phone-ringing"><path d="M.787 24.123l6.072-4.049a1.773 1.773 0 0 1 2.373.386l1.77 2.273c.226.3.64.387.969.204l.336-.185c1.115-.608 2.503-1.365 5.3-4.161 2.795-2.797 3.554-4.185 4.162-5.299l.184-.336a.757.757 0 0 0-.2-.973l-2.273-1.768a1.773 1.773 0 0 1-.385-2.372l4.049-6.071a1.763 1.763 0 0 1 2.377-.535l2.539 1.525a3.581 3.581 0 0 1 1.633 2.12c.914 3.33.226 9.079-8.243 17.548-6.738 6.736-11.754 8.547-15.201 8.547a8.86 8.86 0 0 1-2.35-.306 3.578 3.578 0 0 1-2.12-1.633L.254 26.5a1.763 1.763 0 0 1 .534-2.377zm.327 1.864l1.523 2.54c.337.575.883.998 1.525 1.18 3.076.845 8.449.146 16.58-7.984 8.132-8.13 8.83-13.502 7.986-16.577a2.587 2.587 0 0 0-1.183-1.527l-2.539-1.523a.765.765 0 0 0-1.031.232l-2.2 3.302-1.846 2.768a.77.77 0 0 0 .167 1.03l2.273 1.768a1.75 1.75 0 0 1 .463 2.245l-.18.328c-.64 1.172-1.433 2.63-4.334 5.529-2.9 2.899-4.357 3.693-5.528 4.332l-.329.18a1.75 1.75 0 0 1-2.245-.463l-1.768-2.273a.77.77 0 0 0-1.03-.166l-6.072 4.048a.764.764 0 0 0-.232 1.031zM13 5.986a8.508 8.508 0 0 0-8.498 8.497.5.5 0 1 1-1 0c.006-5.243 4.255-9.491 9.499-9.497a.5.5 0 1 1 0 1z" fill="#3F3F3F"/><path d="M13 8.984a5.505 5.505 0 0 0-5.498 5.498.5.5 0 0 1-1 0A6.506 6.506 0 0 1 13 7.984a.5.5 0 1 1 0 1z" fill="#3F3F3F"/><path d="M13 11.983a2.503 2.503 0 0 0-2.499 2.5.5.5 0 0 1-1 0 3.503 3.503 0 0 1 3.5-3.5.5.5 0 1 1 0 1z" fill="#3F3F3F"/></symbol><symbol id="phone" viewBox="0 0 20 21"><path d="M16.2 16.8l-2.6-3a1 1 0 0 0-1.2-.2l-1.3 1h-.5l-.1-.2c-.5-.5-1.1-1.1-2.2-3-1-2-1.3-2.8-1.4-3.5v-.2c-.1-.2 0-.4.2-.5l1.4-.7c.4-.2.7-.7.5-1.2L7.8 1.4A1 1 0 0 0 6.6.8l-1.5.4a2 2 0 0 0-1.1 1C3 3.8 2.6 7 5.8 12.9c2.5 4.6 4.9 6.4 6.6 6.9l1.3.1c.5 0 1-.2 1.3-.6l1.1-1.1c.4-.4.4-1 .1-1.4z"/></symbol><symbol id="starred-message" viewBox="0 -23 512 512"><path d="M491.4 115.4a179.1 179.1 0 0 0-56.8-67C390.8 16.7 329 0 256 0S121.2 16.7 77.4 48.4a179.1 179.1 0 0 0-56.8 67A218.3 218.3 0 0 0 0 212c0 78.3 32.3 138.2 93.6 174.2-8.5 30-19.5 48-19.6 48.2L55 465l36 .1h.4a155 155 0 0 0 105.8-45c18.6 2.7 38.4 4 58.8 4 73 0 134.8-16.7 178.6-48.4a179.2 179.2 0 0 0 56.8-67c13.7-27.9 20.6-60.4 20.6-96.6s-7-68.7-20.6-96.6zm-80.2 227.8C374.2 370 320.6 384 256 384c-22.2 0-43.4-1.7-63-5l-11-1.9-7.4 8.6a112.2 112.2 0 0 1-49.7 33.4c4-10.9 8.1-24 11.4-38.8l3.4-15.3-14-7C68.8 330 40 281 40 212c0-57.9 20.5-102 60.8-131.2C137.8 54 191.4 40 256 40s118.2 14.1 155.2 40.8C451.5 109.9 472 154 472 212s-20.5 102-60.8 131.2zm-121.6-170L256 106.4 222.4 173l-76 10.9 55 52.6-12.8 73.6 67.4-34.7 67.4 34.7-12.9-73.6 55.1-52.6zM270 237.7l-14.1-7.3-14.1 7.3 2.6-15.4-10.9-10.5 15.2-2.1 7.2-14.4 7.2 14.4 15.2 2.1-11 10.5zm0 0"/></symbol><symbol id="vk" viewBox="0 0 511.96 511.96"><path d="M507.4 370.47c-1.38-2.3-9.89-20.8-50.85-58.82-42.88-39.8-37.12-33.34 14.53-102.17 31.46-41.92 44.03-67.52 40.1-78.47-3.75-10.43-26.88-7.68-26.88-7.68l-76.93.45s-5.7-.77-9.95 1.76c-4.13 2.5-6.79 8.26-6.79 8.26s-12.2 32.45-28.45 60.03c-34.27 58.2-48 61.28-53.6 57.66-13.02-8.41-9.76-33.85-9.76-51.9 0-56.42 8.55-79.94-16.67-86.02-8.38-2.01-14.53-3.36-35.93-3.58-27.46-.29-50.72.1-63.88 6.53-8.76 4.29-15.52 13.85-11.39 14.4 5.09.67 16.6 3.1 22.72 11.42 7.9 10.72 7.62 34.85 7.62 34.85s4.54 66.4-10.6 74.66c-10.4 5.66-24.63-5.9-55.2-58.72-15.64-27.04-27.48-56.96-27.48-56.96s-2.27-5.57-6.34-8.55c-4.93-3.61-11.84-4.77-11.84-4.77l-73.15.45s-10.98.32-15 5.1c-3.6 4.25-.3 13.01-.3 13.01S58.66 275.4 123.5 342.95c59.5 61.92 127.01 57.86 127.01 57.86h30.6s9.24-1.03 13.95-6.12c4.35-4.67 4.19-13.44 4.19-13.44s-.6-41.05 18.46-47.1c18.79-5.95 42.91 39.68 68.48 57.25 19.33 13.28 34.02 10.37 34.02 10.37l68.38-.96s35.78-2.21 18.82-30.34z"/></symbol><symbol id="x" viewBox="0 0 49.94 49.94"><path d="M48.86 22.73a3.56 3.56 0 0 0 .9-3.67 3.56 3.56 0 0 0-2.89-2.44l-12.1-1.76c-.5-.07-.95-.4-1.18-.86l-5.4-10.96c-.62-1.23-1.85-2-3.22-2s-2.6.77-3.21 2L16.36 14c-.24.47-.68.79-1.2.86l-12.1 1.76a3.56 3.56 0 0 0-2.88 2.44 3.56 3.56 0 0 0 .9 3.67l8.75 8.53c.38.36.55.89.46 1.4L8.22 44.7A3.5 3.5 0 0 0 9 47.6a3.62 3.62 0 0 0 4.42.88l10.81-5.69a1.62 1.62 0 0 1 1.48 0l10.81 5.69a3.54 3.54 0 0 0 4.41-.87 3.5 3.5 0 0 0 .79-2.9l-2.07-12.05c-.09-.51.08-1.04.46-1.4l8.75-8.53z"/></symbol></svg>