<svg xmlns="http://www.w3.org/2000/svg" viewBox="0 0 480 480"><path d="M480 96a39.9 39.9 0 0 0-35.4-39.5A119.4 119.4 0 0 0 232 76.7 120.3 120.3 0 0 0 114.2 0 121.5 121.5 0 0 0 0 123.2c.2 56 26.3 108.6 70.8 142.5l18 13.7A277.7 277.7 0 0 0 48.4 416H48a16 16 0 0 0-16 16v32a16 16 0 0 0 16 16h280a16 16 0 0 0 16-16v-32a16 16 0 0 0-7-13.1l7-6.5A437.6 437.6 0 0 0 480 96zM80.4 253A163.7 163.7 0 0 1 16 123.2a105.5 105.5 0 0 1 99-107A104 104 0 0 1 224 120a8 8 0 0 0 16 0 103.1 103.1 0 0 1 186.6-61.5A40 40 0 0 0 400 96c.2 63.2-29 122.9-79 161.5l-20.7 16.2L325 238a45 45 0 0 0-68.8-57.5L155 281.8a205.1 205.1 0 0 0-14.7 16.4L80.4 253zM96 464H48v-32h48v32zm-31.7-48a261.7 261.7 0 0 1 37.4-126.9l29 22c-21.2 31-33.1 67.4-34.5 105H64.3zM328 464H112v-32h216v32zm5-63.3L316.7 416H112.4c1.8-46.3 21-90.2 53.8-123l101.3-101.2c11.5-11 29.5-11 41 0a29 29 0 0 1 3.4 37l-54.4 78.6a8 8 0 0 0 11.4 10.9l62-48.2c53.9-41.6 85.3-106 85.1-174a24 24 0 1 1 48 0 421.6 421.6 0 0 1-131 304.7z"/><path d="M168 96h-24V72a8 8 0 0 0-8-8h-32a8 8 0 0 0-8 8v24H72a8 8 0 0 0-8 8v32a8 8 0 0 0 8 8h24v24a8 8 0 0 0 8 8h32a8 8 0 0 0 8-8v-24h24a8 8 0 0 0 8-8v-32a8 8 0 0 0-8-8zm-8 32h-24a8 8 0 0 0-8 8v24h-16v-24a8 8 0 0 0-8-8H80v-16h24a8 8 0 0 0 8-8V80h16v24a8 8 0 0 0 8 8h24v16z"/><path d="M120 32a88 88 0 1 0 0 176 88 88 0 0 0 0-176zm0 160a72 72 0 1 1 .2-144.2A72 72 0 0 1 120 192zM296 440h16v16h-16z"/></svg>