<svg xmlns="http://www.w3.org/2000/svg" width="206" height="70" fill="none" viewBox="0 0 206 70"><g clip-path="url(#clip0)"><path fill="#424241" fill-rule="evenodd" d="M86.92 6.16c-4.64 8.94-9.53 12.58-16.64 13.39A30.46 30.46 0 0 1 74 30.1c-.99 1.11-1.68 3.42-1.68 6.44 0 3.02.74 6.05 1.91 6.95a58.26 58.26 0 0 1-3.6 13.73 30.9 30.9 0 0 1 4.15 2.55c5.05 3.93 4.46 5.16 5.18 10.22-9.8-14.7-22.6-4.06-29.69-4.06-10.44 0-22.87-11.03-31.9-18.11-.15-.13-.45-.09-.6.04-2.88 2.36-3.18 2.93-5.03 4.63a.7.7 0 0 1-.23.19.67.67 0 0 1-.82-1.02C22.03 38.38 44.98 16.05 60.47 6.59a1.12 1.12 0 1 0-1.05-1.97C36.92 15.1 18.12 33.85 1.15 52.3A.66.66 0 0 1 0 51.81c0-.08.01-.17.04-.24C1.05 47.55 47.6-1.5 61.18.03c1.84.21 7.12 2.67 6.65 7.36 8.1 3.11 11.7 3 19.09-1.23zM67.28 19.83c-3.9.24-7.57-.37-12.17-1.42-2.48-.57-1.8-.78-3.88.71-11.64 8.33-19.06 13.96-29.48 24.7-.37.38-.16.42.06.56C56.4 65.4 54.37 49.93 67.88 55.93c.96-2.43 2.05-4.6 2.63-7.08a27.43 27.43 0 0 1-3.2-12.23c0-4.92 1.88-8.45 2.99-10.87a25.54 25.54 0 0 0-3.02-5.92z" clip-rule="evenodd"/><path fill="#808180" d="M93.45 39.54c-.27 0-.52-.03-.77-.1a1.6 1.6 0 0 1-.63-.31 1.57 1.57 0 0 1-.44-.62 2.5 2.5 0 0 1-.16-.98c0-.38.05-.7.15-.95a1.54 1.54 0 0 1 1.06-.94 3.08 3.08 0 0 1 1.55 0 1.55 1.55 0 0 1 1.07.93c.11.26.16.59.16.98 0 .38-.05.7-.15.96a1.51 1.51 0 0 1-1.05.93c-.24.07-.5.1-.79.1zm1.61-1.99c0-.32-.04-.59-.13-.8-.09-.21-.2-.38-.35-.5a1.25 1.25 0 0 0-.52-.26 2.5 2.5 0 0 0-1.24 0c-.2.05-.36.13-.51.25-.14.13-.26.3-.35.5-.08.21-.13.48-.13.8 0 .32.04.6.13.8a1.23 1.23 0 0 0 .88.76 2.69 2.69 0 0 0 1.23 0c.2-.05.36-.13.5-.25.16-.12.27-.29.36-.5.1-.2.13-.48.13-.8zM98.38 39.46v-.38c-.27 0-.53-.02-.78-.06a1.9 1.9 0 0 1-.68-.21 1.3 1.3 0 0 1-.48-.47c-.12-.2-.18-.46-.18-.8 0-.33.06-.6.18-.8.13-.2.29-.35.48-.46.2-.1.43-.18.68-.21.25-.04.51-.06.78-.06v-.4h.37v.4c.26 0 .52.02.77.06.26.03.48.1.68.21.2.1.36.26.49.46.12.2.19.47.19.8 0 .34-.07.6-.19.8-.12.2-.29.36-.49.47-.2.1-.42.17-.68.21-.25.04-.5.06-.77.06v.38h-.37zm-1.73-1.91c0 .26.05.47.15.62.1.15.23.27.4.34.15.08.34.13.54.16l.64.04v-2.33c-.22 0-.43.02-.64.04-.2.03-.38.08-.55.16-.16.08-.3.2-.4.35-.1.15-.14.35-.14.62zm3.84 0a.99.99 0 0 0-.55-.97 1.75 1.75 0 0 0-.56-.16c-.2-.02-.41-.04-.63-.04v2.33c.22 0 .43-.02.63-.04.21-.03.4-.08.56-.16.16-.08.3-.2.4-.34.1-.15.15-.36.15-.62zM103.04 39.46V36h-1.65v-.37h3.64l-.03.37h-1.57v3.47h-.39zM107.99 38.57h-2.5l-.45.9h-.43l1.97-3.85h.33l1.97 3.84h-.43l-.46-.89zm-2.32-.34h2.15l-1.08-2.1-1.07 2.1zM112.47 39.46V36h-2.25l-.11 2.6c0 .18-.02.34-.06.46a.65.65 0 0 1-.16.28.5.5 0 0 1-.24.13 1.12 1.12 0 0 1-.43.02l-.14-.02.03-.35h.16a.8.8 0 0 0 .18 0c.06-.02.1-.05.15-.08a.4.4 0 0 0 .1-.17.88.88 0 0 0 .03-.28l.12-2.97h3v3.85h-.38zM116.52 37.06c.15 0 .29.03.41.07.13.05.25.12.34.21.1.1.17.22.23.38.05.15.08.33.08.54 0 .22-.03.4-.08.55a1 1 0 0 1-.23.37c-.1.1-.21.17-.34.21-.13.05-.26.07-.41.07h-2.43v-3.85h.4v1.45h2.03zm0 2.03a.8.8 0 0 0 .26-.04.6.6 0 0 0 .37-.4c.03-.11.05-.23.05-.38s-.01-.28-.05-.38a.79.79 0 0 0-.15-.26.56.56 0 0 0-.22-.14.78.78 0 0 0-.27-.05h-2.03v1.66h2.03zM122.44 39.46v-3.08l-1.56 2.32h-.33l-1.56-2.32v3.08h-.4v-3.84h.35l1.77 2.65 1.77-2.65h.33v3.84h-.37zM125.86 39.54c-.28 0-.53-.03-.77-.1a1.6 1.6 0 0 1-.64-.31 1.56 1.56 0 0 1-.44-.62c-.1-.26-.16-.58-.16-.98 0-.38.05-.7.15-.95a1.54 1.54 0 0 1 1.06-.94 3.08 3.08 0 0 1 1.55 0c.25.06.46.16.64.32.18.15.33.36.44.61.1.26.16.59.16.98 0 .38-.05.7-.16.96a1.52 1.52 0 0 1-1.05.93c-.24.07-.5.1-.78.1zm1.61-1.99c0-.32-.04-.59-.13-.8a1.25 1.25 0 0 0-.88-.76 2.5 2.5 0 0 0-1.23 0c-.2.05-.37.13-.52.25-.14.13-.26.3-.34.5-.09.21-.13.48-.13.8 0 .32.04.6.13.8a1.21 1.21 0 0 0 .87.76 2.7 2.7 0 0 0 1.23 0c.2-.05.37-.13.51-.25.15-.12.27-.29.36-.5.08-.2.13-.48.13-.8zM131.76 39.46V36h-2.24l-.12 2.6c0 .18-.02.34-.06.46a.66.66 0 0 1-.16.28.51.51 0 0 1-.24.13 1.11 1.11 0 0 1-.42.02l-.15-.02.04-.35H128.75l.14-.08c.04-.04.07-.1.1-.17a.85.85 0 0 0 .03-.28l.12-2.97h3v3.85h-.38zM135.19 39.54c-.27 0-.53-.03-.77-.1a1.6 1.6 0 0 1-.64-.31 1.56 1.56 0 0 1-.44-.62c-.1-.26-.16-.58-.16-.98 0-.38.06-.7.16-.95a1.55 1.55 0 0 1 1.05-.94 3.08 3.08 0 0 1 1.55 0c.25.06.46.16.64.32.18.15.33.36.44.61.1.26.16.59.16.98 0 .38-.05.7-.15.96a1.52 1.52 0 0 1-1.06.93c-.24.07-.5.1-.78.1zm1.61-1.99c0-.32-.04-.59-.13-.8-.09-.21-.2-.38-.35-.5a1.25 1.25 0 0 0-.52-.26 2.5 2.5 0 0 0-1.24 0c-.2.05-.37.13-.51.25-.15.13-.27.3-.35.5-.08.21-.13.48-.13.8 0 .32.04.6.13.8a1.23 1.23 0 0 0 .88.76 2.69 2.69 0 0 0 1.22 0c.2-.05.37-.13.52-.25.14-.12.26-.29.35-.5.09-.2.13-.48.13-.8zM138.2 39.46v-3.84h3.22l-.04.37h-2.8v3.47h-.38zM142.17 39.46v-3.84h.39v3.2l2.89-3.2h.3v3.84h-.38v-3.2l-2.88 3.2h-.32zM146.95 35.62h.39v1.36c0 .2.03.37.1.5a.8.8 0 0 0 .3.33c.13.09.3.15.48.18a3.69 3.69 0 0 0 1.53-.04v-2.33h.39v3.84h-.4v-1.13a7.87 7.87 0 0 1-.91.09c-.3 0-.56-.03-.79-.08a1.63 1.63 0 0 1-.6-.24 1.05 1.05 0 0 1-.36-.44c-.09-.18-.13-.4-.13-.66v-1.38zM151.37 39.46v-3.84h3.22l-.03.37h-2.8v1.37h2.5l-.01.37h-2.49v1.36h2.83l-.03.37h-3.19zM155.31 37.47c0-.42.06-.76.18-1.02a1.44 1.44 0 0 1 1.14-.84 5.05 5.05 0 0 1 1.45-.03l.75.09-.04.37a9.48 9.48 0 0 0-2-.08c-.2.03-.4.1-.55.2-.17.1-.3.26-.4.47-.09.2-.14.49-.14.84s.05.64.15.87c.1.22.23.39.4.52.17.12.36.2.58.25.22.04.45.06.7.06h.23l.31-.02a6.13 6.13 0 0 0 .73-.1l.03.37-.37.05-.37.04-.35.03h-.3c-.27 0-.54-.02-.8-.08a1.53 1.53 0 0 1-1.15-.94 2.65 2.65 0 0 1-.18-1.05zM159.84 39.46v-3.84h.39v1.74h.96l1.57-1.74h.5l-1.72 1.93 1.72 1.91h-.5l-1.57-1.73h-.97v1.73h-.38zM166.83 38.57h-2.5l-.45.9h-.43l1.98-3.85h.32l1.97 3.84h-.43l-.46-.89zm-2.32-.34h2.15l-1.07-2.1-1.08 2.1zM168.04 39.46l1.29-1.44H169c-.14 0-.27-.02-.4-.07a.87.87 0 0 1-.54-.59 1.72 1.72 0 0 1-.08-.55c0-.21.02-.39.08-.54a.97.97 0 0 1 .21-.37c.1-.1.2-.17.33-.21.12-.05.26-.07.4-.07h2.46v3.84h-.39v-1.44h-1.25l-1.3 1.44h-.48zm.33-2.65c0 .15.02.28.05.39.04.1.08.19.14.25.05.07.12.12.2.15.07.03.16.05.24.05h2.07v-1.66H169a.69.69 0 0 0-.25.05.51.51 0 0 0-.2.14.78.78 0 0 0-.13.26c-.03.1-.05.23-.05.37zM174.84 39.46v-3.84h.39v1.74h.96l1.57-1.74h.5l-1.72 1.93 1.72 1.91h-.5l-1.57-1.73h-.97v1.73h-.38zM181.93 39.46V36h-2.25l-.12 2.6c0 .18-.02.34-.06.46a.66.66 0 0 1-.16.28.51.51 0 0 1-.23.13 1.11 1.11 0 0 1-.43.02l-.14-.02.03-.35h.16a.8.8 0 0 0 .18 0l.14-.08c.04-.04.07-.1.1-.17a.85.85 0 0 0 .03-.28l.13-2.97h3v3.85h-.38zM183.55 39.46v-3.84h.39v3.2l2.89-3.2h.3v3.84h-.38v-3.2l-2.88 3.2h-.32zM188.37 39.46v-3.84h.38v1.74h2.93v-1.74h.39v3.84h-.39v-1.73h-2.93v1.73h-.38zM193.3 39.46v-3.84h.4v3.2l2.88-3.2h.31v3.84h-.39v-3.2l-2.88 3.2h-.32zM198.12 39.46v-3.84h.39v1.74h.96l1.57-1.74h.5l-1.72 1.93 1.72 1.91h-.5l-1.57-1.73h-.97v1.73h-.38zM205.12 38.57h-2.5l-.45.9h-.43l1.97-3.85h.32l1.97 3.84h-.43l-.45-.89zm-2.33-.34h2.15l-1.07-2.1-1.08 2.1z"/><path fill="#77BAA8" d="M109.45 21.28a7.52 7.52 0 0 0-2.26-.77c-.77-.13-1.54-.2-2.32-.2h-2.09l-3.83 6.05c-.55.9-1.1 1.61-1.64 2.11-.54.5-1.07.89-1.6 1.14a4.6 4.6 0 0 1-1.57.47c-.53.05-1.06.08-1.6.08h-1.06v-3.54h.8c.27 0 .54-.03.83-.08.3-.06.6-.18.93-.36a5.2 5.2 0 0 0 1.04-.8c.36-.36.77-.85 1.2-1.47l2.54-3.77a7.8 7.8 0 0 1-2.46-.75 6.35 6.35 0 0 1-3.14-3.54c-.3-.8-.45-1.71-.45-2.72 0-1.06.19-2.02.56-2.89.38-.87.9-1.6 1.58-2.2a7.25 7.25 0 0 1 2.4-1.4c.92-.34 1.93-.5 3.02-.5h12.62v24.02h-3.5v-8.88zm0-11.59h-9.09c-.58 0-1.12.08-1.6.24-.5.17-.93.39-1.3.68a2.99 2.99 0 0 0-1.19 2.45c.01 1.28.39 2.22 1.14 2.82.74.6 1.73.9 2.95.9h4.53c.79 0 1.56.05 2.33.15.76.1 1.5.38 2.23.8V9.7zM140.61 11.88a9.99 9.99 0 0 0-13.76-.31 8.9 8.9 0 0 0-2 2.92 9.32 9.32 0 0 0 .05 7.3 8.83 8.83 0 0 0 2.1 2.84 9.88 9.88 0 0 0 10.94 1.54 9.88 9.88 0 0 0 3.32-2.73l2.16 2.92a13.3 13.3 0 0 1-4.36 3.2c-1.7.76-3.5 1.15-5.46 1.15a12.92 12.92 0 0 1-9.18-3.73 12.78 12.78 0 0 1-3.73-9.18c0-1.75.35-3.4 1.04-4.9a12.4 12.4 0 0 1 2.84-3.93 13.24 13.24 0 0 1 9.06-3.52 12.8 12.8 0 0 1 9.24 3.8l-2.26 2.63zM154.32 30.17h-3.5V6.15h3.5L154.3 16c.5-.23 1-.4 1.51-.5a8.32 8.32 0 0 1 3.04-.03 377.3 377.3 0 0 0 4.4.49c.75.07 1.4.11 1.93.11.5 0 1.03-.04 1.61-.13a5.93 5.93 0 0 0 1.64-.48v-9.3h3.5v24h-3.5V19c-.51.24-1.06.4-1.64.49-.58.08-1.11.12-1.6.12-.54 0-1.18-.03-1.93-.11a244.14 244.14 0 0 1-4.39-.48 8.29 8.29 0 0 0-3.03.03c-.52.1-1.02.26-1.51.5v10.63zM205.54 18.2c0 1.78-.35 3.43-1.05 4.95a12.6 12.6 0 0 1-2.82 3.96 13.38 13.38 0 0 1-9.09 3.6A12.94 12.94 0 0 1 183.4 27a12.95 12.95 0 0 1-3.74-9.17c0-1.77.36-3.4 1.05-4.92.7-1.51 1.65-2.82 2.84-3.92a13.27 13.27 0 0 1 18.21.16c1.17 1.15 2.1 2.49 2.78 4.04a12.33 12.33 0 0 1 1 5.01zm-3.5-.22a8.6 8.6 0 0 0-2.83-6.47 9.38 9.38 0 0 0-3-1.87 10 10 0 0 0-3.65-.66c-1.33 0-2.57.23-3.73.68a8.81 8.81 0 0 0-5 4.83 9.32 9.32 0 0 0 .04 7.3 8.82 8.82 0 0 0 2.1 2.84 9.86 9.86 0 0 0 10.28 1.84 9.3 9.3 0 0 0 5.03-4.86c.5-1.11.75-2.32.75-3.63zM111.93 60.96a5.9 5.9 0 0 1-.73 3.04 6.18 6.18 0 0 1-1.9 2.02c-.79.53-1.67.9-2.66 1.14-.99.24-1.98.36-2.97.36H91.48V43.5h12.17c1.01 0 1.95.15 2.82.44.87.3 1.62.71 2.25 1.27a5.72 5.72 0 0 1 1.48 2.06c.36.82.54 1.76.54 2.81 0 1.03-.18 1.97-.55 2.8-.36.84-.9 1.49-1.6 1.94a5.48 5.48 0 0 1 2.3 2.12 7.74 7.74 0 0 1 1.04 4.02zm-16.94-6.55c.73-.43 1.47-.7 2.23-.8.77-.1 1.54-.16 2.33-.16h4.12c1.09 0 1.95-.28 2.6-.83.64-.55.96-1.38.96-2.5 0-1.15-.34-1.94-1-2.4a4.47 4.47 0 0 0-2.57-.68H95v7.37zm0 9.57h9.03c.47 0 .96-.07 1.49-.2.52-.15 1-.36 1.43-.65.42-.29.78-.65 1.06-1.1.28-.43.42-.95.42-1.55 0-.7-.14-1.28-.42-1.72-.28-.45-.64-.8-1.1-1.06a4.81 4.81 0 0 0-1.52-.55 9.38 9.38 0 0 0-1.71-.16h-4.12c-.77 0-1.54.07-2.3.2-.78.12-1.53.38-2.26.77v6.02zM135.3 43.5h3.51v24.02h-3.5v-18.5l-14.11 18.5h-3.51V43.5h3.5v18.51l14.11-18.5zM159.97 43.5h3.5v9.92c.67-.02 1.34-.1 2-.23a6.55 6.55 0 0 0 1.93-.7l6.09-8.99h4.22l-7.89 11.3 4.32 6.47c.38.6.76 1.08 1.12 1.44.37.35.71.63 1.03.82.33.19.64.31.94.37a4.83 4.83 0 0 0 1.26.06l.38-.02.03 3.58h-1.35c-.54 0-1.06-.03-1.56-.1-.51-.06-1-.22-1.5-.48s-1-.64-1.51-1.14a10.7 10.7 0 0 1-1.58-2.08l-4.6-7.37c-.56.24-1.11.4-1.66.49-.54.08-1.1.12-1.65.12v10.56h-3.51V56.96c-.56 0-1.11-.04-1.66-.12a6.5 6.5 0 0 1-1.63-.49l-4.63 7.37c-.58.9-1.14 1.61-1.68 2.11a6.5 6.5 0 0 1-1.57 1.13c-.52.25-1.04.4-1.56.47-.53.06-1.06.1-1.6.1h-1.06l.04-3.58c.1 0 .22 0 .35.02l.42.01c.28 0 .56-.02.85-.06.3-.04.6-.16.92-.34.32-.18.66-.46 1.03-.82.37-.36.75-.86 1.16-1.48l4.31-6.47-7.88-11.3H150l6.05 8.98c.62.35 1.26.59 1.91.71.66.13 1.33.2 2.02.23V43.5h-.02zM187.3 49.15a31.25 31.25 0 0 0 4.54 8.11c.86 1.11 1.73 2.2 2.6 3.24a37.83 37.83 0 0 0 1.96-3.78 86.5 86.5 0 0 0 4.56-13.21h4.02c-.47 1.8-1 3.6-1.56 5.4a71.8 71.8 0 0 1-1.93 5.37 59.89 59.89 0 0 1-2.4 5.2 46.69 46.69 0 0 1-2.93 4.89c-.5.7-.99 1.29-1.48 1.73a6.56 6.56 0 0 1-3.14 1.6 9.69 9.69 0 0 1-3.03.03 10.55 10.55 0 0 1-2.68-.82c-.4-.2-.7-.4-.9-.62l1.35-3.06c.51.44 1.02.74 1.53.92.5.18 1.19.28 2.04.28.56 0 1.06-.1 1.5-.3.44-.21.8-.55 1.05-1.02a30.56 30.56 0 0 1-6.28-7.87c-.9-1.6-1.71-3.37-2.44-5.31a47 47 0 0 1-1.87-6.43h3.83c.46 2.13 1.02 4.01 1.66 5.65z"/></g><defs><clipPath id="clip0"><path fill="#fff" d="M0 0h206v70H0z"/></clipPath></defs></svg>
