<svg xmlns="http://www.w3.org/2000/svg" width="94" height="94" fill="none" viewBox="0 0 94 94"><g fill="#fff" clip-path="url(#clip0)"><path d="M36.03 26.63h21.94a1.57 1.57 0 0 0 0-3.13H36.03a1.57 1.57 0 0 0 0 3.13z"/><path d="M89.3 15.67H68.93V4.7c0-2.6-2.1-4.7-4.7-4.7H29.77a4.7 4.7 0 0 0-4.7 4.7v10.97H4.7a4.7 4.7 0 0 0-4.7 4.7V89.3C0 91.9 2.1 94 4.7 94h84.6c2.6 0 4.7-2.1 4.7-4.7V20.37c0-2.6-2.1-4.7-4.7-4.7zM28.2 4.7c0-.87.7-1.57 1.57-1.57h34.46c.87 0 1.57.7 1.57 1.57v10.97H28.2V4.7zM4.7 18.8h84.6c.87 0 1.57.7 1.57 1.57V32.9h-7.84v-6.27c0-2.6-2.1-4.7-4.7-4.7h-9.4a4.7 4.7 0 0 0-4.7 4.7v6.27H29.77v-6.27c0-2.6-2.1-4.7-4.7-4.7h-9.4a4.7 4.7 0 0 0-4.7 4.7v6.27H3.13V20.37c0-.87.7-1.57 1.57-1.57zm62.67 7.83c0-.86.7-1.56 1.56-1.56h9.4c.87 0 1.57.7 1.57 1.56V37.6a6.27 6.27 0 1 1-12.53 0V26.63zm-53.27 0c0-.86.7-1.56 1.57-1.56h9.4c.86 0 1.56.7 1.56 1.56V37.6a6.27 6.27 0 1 1-12.53 0V26.63zm75.2 64.24H4.7c-.87 0-1.57-.7-1.57-1.57V36.03h7.84v1.57a9.4 9.4 0 1 0 18.8 0v-1.57h34.46v1.57a9.4 9.4 0 1 0 18.8 0v-1.57h7.84V89.3c0 .87-.7 1.57-1.57 1.57z"/><path d="M18.8 39.17h3.13a1.57 1.57 0 1 0 0-3.14H18.8a1.57 1.57 0 0 0 0 3.14zM72.07 39.17h3.13a1.57 1.57 0 0 0 0-3.14h-3.13a1.57 1.57 0 1 0 0 3.14zM18.8 31.33h3.13a1.57 1.57 0 1 0 0-3.13H18.8a1.57 1.57 0 0 0 0 3.13zM72.07 31.33h3.13a1.57 1.57 0 0 0 0-3.13h-3.13a1.57 1.57 0 1 0 0 3.13zM70.8 60.29c.21-.8.1-1.66-.32-2.38l-6.26-10.85a3.13 3.13 0 0 0-4.28-1.15l-3.54 2.04v-4.08c0-1.73-1.4-3.14-3.13-3.14H40.73a3.13 3.13 0 0 0-3.13 3.14v4.08l-3.54-2.04a3.13 3.13 0 0 0-4.28 1.15l-6.26 10.86a3.13 3.13 0 0 0 1.14 4.28l3.54 2.03-3.54 2.04a3.14 3.14 0 0 0-1.14 4.28l6.26 10.85a3.13 3.13 0 0 0 4.28 1.15l3.54-2.03v4.08c0 1.73 1.4 3.13 3.13 3.13h12.54c1.73 0 3.13-1.4 3.13-3.13v-4.08l3.54 2.03c1.5.87 3.41.35 4.28-1.14l6.26-10.86c.87-1.5.36-3.41-1.14-4.28l-3.54-2.04 3.54-2.03a3.1 3.1 0 0 0 1.46-1.91zm-7.74 5.98l4.71 2.72-6.27 10.86-4.7-2.73a2.35 2.35 0 0 0-3.53 2.04v5.44H40.73v-5.44a2.35 2.35 0 0 0-3.52-2.04l-4.71 2.72L26.23 69l4.71-2.72a2.35 2.35 0 0 0 0-4.07l-4.71-2.73 6.27-10.85 4.7 2.72a2.35 2.35 0 0 0 3.53-2.04v-5.43h12.54v5.44a2.35 2.35 0 0 0 3.52 2.04l4.71-2.73 6.27 10.86-4.71 2.72a2.35 2.35 0 0 0 0 4.07z"/><path d="M47 51.7c.86 0 1.57-.7 1.57-1.57v-1.56a1.57 1.57 0 0 0-3.14 0v1.56c0 .87.7 1.57 1.57 1.57zM49.5 61.1h-.93v-4.23l3.35-.48a1.57 1.57 0 1 0-.44-3.1l-8.1 1.16a4.92 4.92 0 0 0 .7 9.78h1.35v6.03l-5.23 1.9a1.57 1.57 0 1 0 1.07 2.95l4.16-1.52v6.31a1.57 1.57 0 0 0 3.14 0v-7.45l3.02-1.1a5.34 5.34 0 0 0-2.1-10.25zm-5.41 0a1.79 1.79 0 0 1-.26-3.56l1.6-.23v3.79H44.1zm6.36 7.34l-1.88.68v-4.89h.92a2.21 2.21 0 0 1 .96 4.21z"/></g><defs><clipPath id="clip0"><path fill="#fff" d="M0 0h94v94H0z"/></clipPath></defs></svg>
