<svg xmlns="http://www.w3.org/2000/svg" width="94" height="94" fill="none" viewBox="0 0 94 94"><g fill="#fff" clip-path="url(#clip0)"><path d="M12.5 81.47a6.27 6.27 0 1 0 0 12.53h65.8a6.27 6.27 0 0 0 0-12.53H68.22l-1.23-1.97a38.74 38.74 0 0 0 20.73-34.07c0-17.79-12.34-33.18-30.11-37.77a4.7 4.7 0 0 0-4.36-2.96H42.28V3.13c0-1.73-1.4-3.13-3.14-3.13H21.91a4.7 4.7 0 0 0-4.7 4.7v29.77h-3.13a4.71 4.71 0 0 0-4.64 5.5 4.86 4.86 0 0 0 4.83 3.9h1.37V47a4.7 4.7 0 0 0 9.4 0v-3.13h3.14V47a4.7 4.7 0 0 0 9.4 0v-3.13c2.6 0 4.7-2.1 4.7-4.7v-8a7.86 7.86 0 0 0 6.1-6.1h4.86c2.4-.01 4.4-1.81 4.65-4.2a26.62 26.62 0 0 1 17.29 24.56 26.55 26.55 0 0 1-14.86 23.42l-3.84-6.15a13.06 13.06 0 0 0-11.07-6.3H12.5a3.13 3.13 0 0 0-3.13 3.13v3.14c0 1.73 1.4 3.13 3.13 3.13h19.9l-1.96 3.13H14.08a4.7 4.7 0 0 0 0 9.4h10.5l-1.97 3.14h-10.1zm68.94 6.26c0 1.73-1.4 3.14-3.13 3.14H12.5a3.13 3.13 0 1 1 0-6.27h65.8c1.73 0 3.13 1.4 3.13 3.13zM20.34 4.7c0-.87.7-1.57 1.57-1.57h17.23v12.7a7.83 7.83 0 0 0 0 15.35v3.29h-18.8V4.7zM21.91 47a1.57 1.57 0 0 1-3.13 0v-3.13h3.13V47zm12.53 0a1.57 1.57 0 0 1-3.13 0v-3.13h3.13V47zm4.7-7.83c0 .86-.7 1.56-1.56 1.56H14.27c-.81.03-1.54-.5-1.74-1.29a1.57 1.57 0 0 1 1.55-1.84h25.06v1.57zm1.57-10.97a4.7 4.7 0 1 1 0-9.4 4.7 4.7 0 0 1 0 9.4zm14.1-7.83c0 .86-.7 1.56-1.57 1.56H48.4a7.86 7.86 0 0 0-6.11-6.1v-8h10.96c.87 0 1.57.7 1.57 1.57v10.97zm23.5 25.06a29.8 29.8 0 0 0-20.37-27.86v-6.56a36.12 36.12 0 0 1 26.64 34.42 35.65 35.65 0 0 1-19.26 31.41l-3.33-5.33a29.67 29.67 0 0 0 16.32-26.08zm-65.8 14.1h24.58c-1.07.9-1.99 1.96-2.73 3.14H12.5v-3.14zm1.57 15.67a1.57 1.57 0 1 1 0-3.13h14.4l-1.95 3.13H14.08zM37 64.36a9.95 9.95 0 0 1 8.4-4.83 9.95 9.95 0 0 1 8.42 4.83l10.7 17.1H26.3L37 64.37z"/><path d="M45.4 64.23a6.27 6.27 0 1 0 0 12.54 6.27 6.27 0 0 0 0-12.54zm0 9.4a3.13 3.13 0 1 1 0-6.26 3.13 3.13 0 0 1 0 6.26zM25.04 6.27c-.86 0-1.56.7-1.56 1.56V9.4a1.57 1.57 0 1 0 3.13 0V7.83c0-.86-.7-1.56-1.57-1.56zM25.04 14.1c-.86 0-1.56.7-1.56 1.57v14.1a1.57 1.57 0 1 0 3.13 0v-14.1c0-.87-.7-1.57-1.57-1.57zM36 75.2h-1.56a1.57 1.57 0 1 0 0 3.13h1.57a1.57 1.57 0 1 0 0-3.13zM56.38 75.2H54.8a1.57 1.57 0 1 0 0 3.13h1.57a1.57 1.57 0 1 0 0-3.13z"/></g><defs><clipPath id="clip0"><path fill="#fff" d="M0 0h94v94H0z"/></clipPath></defs></svg>
