<svg xmlns="http://www.w3.org/2000/svg" viewBox="0 0 30 31"><g ><path d="M9.4 24.2a.4.4 0 0 0 .7.5c1.2-1.6 3-2.5 5-2.5 1.9 0 3.7 1 4.8 2.5a.4.4 0 1 0 .7-.6 7 7 0 0 0-5.6-2.7 7 7 0 0 0-5.6 2.8zM23.3 13.8c0-.3-.3-.4-.5-.3l-5.7 1.4a.4.4 0 0 0 .2.8h.2v.4c0 1.5 1 2.7 2.2 2.7 1.2 0 2.2-1.2 2.2-2.7 0-.5-.2-1-.4-1.4l1.5-.4c.3 0 .4-.3.3-.5zm-3.6 4.1c-.7 0-1.3-.8-1.3-1.8v-.7l2.2-.5c.3.3.4.8.4 1.2 0 1-.6 1.8-1.3 1.8zM10.4 18.8c1.2 0 2.1-1.2 2.1-2.7v-.4h.2a.4.4 0 0 0 .2-.8l-5.7-1.4a.4.4 0 1 0-.2.8l1.5.4c-.2.4-.3.9-.3 1.4 0 1.5 1 2.7 2.2 2.7zm1.2-3.4v.7c0 1-.5 1.8-1.2 1.8-.8 0-1.3-.8-1.3-1.8 0-.4 0-.9.3-1.2l2.2.5z"/><path stroke="currentColor" fill="transparent" d="M29.5 15.8a14.5 14.5 0 1 1-29 0 14.5 14.5 0 0 1 29 0z"/></g></svg>
