<svg xmlns="http://www.w3.org/2000/svg" viewBox="0 0 30 31"><g><path d="M29.5 7.8H22V1.3c0-.2-.2-.5-.5-.5H.5c-.3 0-.5.3-.5.5v25c0 2.5 2 4.5 4.5 4.5h21c2.5 0 4.5-2 4.5-4.5v-18c0-.2-.2-.5-.5-.5zm-6.8 22H4.5c-2 0-3.5-1.5-3.5-3.5V1.8h20V27l.1.3v.2a3.5 3.5 0 0 0 .4.9l.1.2.1.2.2.2.1.2.3.2v.1l.4.3zm6.3-3.5a3.5 3.5 0 0 1-7 0V8.8h7v17.5z"/><path d="M18.5 4.8h-15c-.3 0-.5.3-.5.5v5c0 .3.2.5.5.5h15c.3 0 .5-.2.5-.5v-5c0-.2-.2-.5-.5-.5zm-.5 5H4v-4h14v4zm.5 4h-15a.5.5 0 1 0 0 1h15a.5.5 0 0 0 0-1zm0 3h-15a.5.5 0 0 0 0 1h15a.5.5 0 0 0 0-1zm0 3h-15a.5.5 0 0 0 0 1h15a.5.5 0 0 0 0-1z"/></g></svg>
