<svg width="30" height="31" viewBox="0 0 30 31" fill="none" xmlns="http://www.w3.org/2000/svg">
<path d="M0.78722 24.123L6.85933 20.0743C7.6299 19.5647 8.66281 19.7324 9.23249 20.4597L11.0012 22.7335C11.2285 23.0331 11.6417 23.1201 11.9706 22.9374L12.307 22.752C13.4224 22.1441 14.8101 21.3874 17.6062 18.5908C20.4023 15.7942 21.1607 14.4056 21.7686 13.2925L21.9531 12.9561C22.1383 12.6274 22.053 12.2125 21.7532 11.9834L19.4805 10.2155C18.7534 9.64583 18.5854 8.61339 19.0946 7.84271L23.144 1.77162C23.6658 0.986833 24.7127 0.751244 25.5205 1.23677L28.0597 2.76178C28.8575 3.23073 29.4428 3.99022 29.6929 4.88109C30.6073 8.21203 29.9194 13.9607 21.4496 22.43C14.7121 29.1659 9.69637 30.9773 6.24887 30.9773C5.45545 30.9807 4.66514 30.8775 3.8992 30.6705C3.00801 30.4207 2.24827 29.8354 1.77954 29.0375L0.25275 26.5003C-0.233564 25.6925 0.0019455 24.6451 0.78722 24.123ZM1.11418 25.9874L2.63745 28.5261C2.97403 29.1021 3.52045 29.5255 4.16225 29.7078C7.23779 30.552 12.611 29.8528 20.7423 21.7228C28.8736 13.5929 29.5729 8.22105 28.7285 5.14556C28.546 4.5031 28.122 3.95607 27.5452 3.61903L25.0061 2.09601C24.6556 1.88514 24.2012 1.98736 23.9748 2.32791L21.7751 5.62986L19.9288 8.39847C19.7077 8.73276 19.7804 9.1808 20.0958 9.42817L22.369 11.1961C23.0607 11.725 23.2583 12.6819 22.8324 13.4414L22.6519 13.7693C22.0129 14.9409 21.2186 16.3984 18.3185 19.2976C15.4184 22.1966 13.9611 22.9909 12.7898 23.6297L12.4614 23.8106C11.7019 24.2364 10.7447 24.0389 10.2157 23.3473L8.44751 21.0745C8.20005 20.7593 7.75211 20.6867 7.41764 20.9076L1.34606 24.9563C1.00521 25.1825 0.902985 25.637 1.11418 25.9874Z" fill="#3F3F3F"/>
<path d="M13.0009 5.98579C8.3094 5.991 4.50747 9.79236 4.50219 14.4831C4.50219 14.7592 4.2784 14.9829 4.00229 14.9829C3.72618 14.9829 3.50238 14.7592 3.50238 14.4831C3.50818 9.24046 7.75741 4.99189 13.0009 4.98615C13.2771 4.98615 13.5009 5.2099 13.5009 5.48597C13.5009 5.76203 13.2771 5.98579 13.0009 5.98579Z" fill="#3F3F3F"/>
<path d="M13.0009 8.98413C9.9653 8.9877 7.50532 11.4473 7.50174 14.4824C7.50174 14.7585 7.27789 14.9822 7.00184 14.9822C6.72572 14.9822 6.50193 14.7585 6.50193 14.4824C6.50609 10.8954 9.41337 7.98858 13.0009 7.98448C13.2771 7.98448 13.5009 8.20824 13.5009 8.4843C13.5009 8.76037 13.2771 8.98413 13.0009 8.98413Z" fill="#3F3F3F"/>
<path d="M13.0009 11.9834C11.6212 11.985 10.503 13.1032 10.5013 14.483C10.5013 14.7591 10.2774 14.9829 10.0014 14.9829C9.72534 14.9829 9.50148 14.7591 9.50148 14.483C9.50371 12.5512 11.0692 10.9857 13.0009 10.9836C13.2771 10.9836 13.5009 11.2074 13.5009 11.4835C13.5009 11.7596 13.2771 11.9834 13.0009 11.9834Z" fill="#3F3F3F"/>
</svg>
