<svg xmlns="http://www.w3.org/2000/svg" viewBox="0 -23 512 512"><path d="M491.4 115.4a179.1 179.1 0 0 0-56.8-67C390.8 16.7 329 0 256 0S121.2 16.7 77.4 48.4a179.1 179.1 0 0 0-56.8 67A218.3 218.3 0 0 0 0 212c0 78.3 32.3 138.2 93.6 174.2-8.5 30-19.5 48-19.6 48.2L55 465l36 .1h.4a155 155 0 0 0 105.8-45c18.6 2.7 38.4 4 58.8 4 73 0 134.8-16.7 178.6-48.4a179.2 179.2 0 0 0 56.8-67c13.7-27.9 20.6-60.4 20.6-96.6s-7-68.7-20.6-96.6zm-80.2 227.8C374.2 370 320.6 384 256 384c-22.2 0-43.4-1.7-63-5l-11-1.9-7.4 8.6a112.2 112.2 0 0 1-49.7 33.4c4-10.9 8.1-24 11.4-38.8l3.4-15.3-14-7C68.8 330 40 281 40 212c0-57.9 20.5-102 60.8-131.2C137.8 54 191.4 40 256 40s118.2 14.1 155.2 40.8C451.5 109.9 472 154 472 212s-20.5 102-60.8 131.2zm-121.6-170L256 106.4 222.4 173l-76 10.9 55 52.6-12.8 73.6 67.4-34.7 67.4 34.7-12.9-73.6 55.1-52.6zM270 237.7l-14.1-7.3-14.1 7.3 2.6-15.4-10.9-10.5 15.2-2.1 7.2-14.4 7.2 14.4 15.2 2.1-11 10.5zm0 0"/></svg>
